<svg xmlns="http://www.w3.org/2000/svg" width="15.969" height="8.573" viewBox="0 0 15.969 8.573">
  <g id="downward-arrow" transform="translate(-117.658 -182.449)">
    <g id="Group_41402" data-name="Group 41402" transform="translate(117.658 182.449)">
      <path id="Path_28755" data-name="Path 28755" d="M125.669,182.457h7.4a.529.529,0,0,1,.215.006c.122.058.279.122.325.232a.454.454,0,0,1-.081.366,5.212,5.212,0,0,1-.493.522q-3.508,3.6-7.01,7.207c-.3.308-.441.308-.737.006q-3.7-3.8-7.4-7.614a1.521,1.521,0,0,1-.162-.174.335.335,0,0,1,.2-.528,1.5,1.5,0,0,1,.279-.017Q121.958,182.454,125.669,182.457Z" transform="translate(-117.658 -182.449)" fill="#3c4650"/>
    </g>
  </g>
</svg>
